<?xml version="1.0" encoding="utf-8"?>
<!-- Generator: Adobe Illustrator 22.1.0, SVG Export Plug-In . SVG Version: 6.00 Build 0)  -->
<svg version="1.1" id="Шар_1" xmlns="http://www.w3.org/2000/svg" xmlns:xlink="http://www.w3.org/1999/xlink" x="0px" y="0px"
	 viewBox="0 0 170.1 170.1" style="enable-background:new 0 0 170.1 170.1;" xml:space="preserve">
<style type="text/css">
	.st0{fill:#A34252;}
	.st1{fill:url(#SVGID_1_);}
	.st2{fill:url(#SVGID_2_);}
	.st3{fill:url(#SVGID_3_);}
	.st4{fill:url(#SVGID_4_);}
	.st5{fill:url(#SVGID_5_);}
</style>
<g>
	<g>
		<path class="st0" d="M13.7,75.5h-4v10.7H6.8V75.5h-4V73h10.9V75.5z"/>
		<path class="st0" d="M19.1,86.2c-0.1-0.4-0.1-0.5-0.2-0.9c-0.8,0.8-1.9,1.2-3.1,1.2c-2.1,0-3.4-1.1-3.4-2.9c0-2.5,2.3-2.8,4.2-3
			c1.7-0.2,2.3-0.4,2.3-1.2c0-0.9-0.6-1.3-1.7-1.3c-1.2,0-1.7,0.4-1.9,1.5h-2.5c0.1-2.1,1.7-3.2,4.4-3.2c1.9,0,4.2,0.4,4.2,3.1v4.1
			c0,0.9,0,1.8,0.3,2.6H19.1z M17.1,82.1c-0.9,0.1-1.9,0.3-1.9,1.4c0,0.8,0.5,1.3,1.4,1.3c1.4,0,2.3-0.8,2.3-2.1v-1.1
			C18.3,81.9,17.7,82,17.1,82.1z"/>
		<path class="st0" d="M28.5,78.7v7.6h-2.6v-7.6h-3.2v-2h8.9v2H28.5z"/>
		<path class="st0" d="M37.8,86.2h-5v-9.6h2.6v3.3h2.5c1.9,0,3.5,1.1,3.5,3.1C41.4,85.2,39.9,86.2,37.8,86.2z M35.4,84.4h1.8
			c1,0,1.6-0.4,1.6-1.3s-0.7-1.4-1.6-1.4h-1.8V84.4z"/>
		<path class="st0" d="M48.8,86.2v-3.5h-1.1l-2.7,3.5h-3.2l3.2-3.8c-1.4-0.2-2.4-1.3-2.4-2.9c0-1.7,1.3-2.9,3.2-2.9h5.8v9.6H48.8z
			 M48.8,78.5h-2.1c-1.2,0-1.6,0.4-1.6,1.1c0,0.7,0.4,1.1,1.6,1.1h2.1V78.5z"/>
		<path class="st0" d="M59.8,86.2v-4h-3.7v4h-2.6v-9.6h2.6v3.5h3.7v-3.5h2.6v9.6H59.8z"/>
		<path class="st0" d="M70.7,86.2c-0.1-0.4-0.1-0.5-0.2-0.9c-0.8,0.8-1.9,1.2-3.1,1.2c-2.1,0-3.4-1.1-3.4-2.9c0-2.5,2.3-2.8,4.2-3
			c1.7-0.2,2.3-0.4,2.3-1.2c0-0.9-0.6-1.3-1.7-1.3c-1.2,0-1.7,0.4-1.9,1.5h-2.5c0.1-2.1,1.7-3.2,4.4-3.2c1.9,0,4.2,0.4,4.2,3.1v4.1
			c0,0.9,0,1.8,0.3,2.6H70.7z M68.6,82.1c-0.9,0.1-1.9,0.3-1.9,1.4c0,0.8,0.5,1.3,1.4,1.3c1.4,0,2.3-0.8,2.3-2.1v-1.1
			C69.9,81.9,69.3,82,68.6,82.1z"/>
		<path class="st0" d="M83,86.2h-3.6l4.1-5.3c-1.7-0.4-3-1.7-3-3.8c0-2.8,2.1-4,4.5-4h6.5v13.2h-2.9v-5.2h-1.7L83,86.2z M88.6,75.3
			h-2.9c-1.2,0-2.4,0.3-2.4,1.8c0,1.6,1.2,1.9,2.6,1.9h2.7V75.3z"/>
		<path class="st0" d="M100.3,86.2l-2.8-4.1l-1.2,1.2v2.9h-2.6v-9.6h2.6v3.8l3.5-3.8h3.1l-3.7,3.7l4.2,5.9H100.3z"/>
		<path class="st0" d="M108.7,86.5c-3,0-5-2-5-5.1c0-3,2-5.1,5-5.1c3,0,4.9,2,4.9,5.1C113.6,84.5,111.7,86.5,108.7,86.5z
			 M108.6,78.4c-1.4,0-2.3,1.1-2.3,3.1c0,2,0.9,3.1,2.3,3.1c1.4,0,2.3-1.2,2.3-3.1C111,79.5,110.1,78.4,108.6,78.4z"/>
		<path class="st0" d="M120.8,76.7c1.7,0,3.1,0.7,3.1,2.4c0,0.9-0.5,1.6-1.3,2c1,0.3,1.7,1,1.7,2.3c0,1.9-1.4,2.9-3.2,2.9h-5.8v-9.6
			H120.8z M119.7,80.5c0.8,0,1.6-0.1,1.6-1.1c0-0.9-0.7-1.1-1.6-1.1h-1.7v2.2H119.7z M119.9,84.5c0.9,0,1.7-0.2,1.7-1.3
			c0-1.1-0.9-1.3-1.9-1.3h-1.8v2.5H119.9z"/>
		<path class="st0" d="M132.3,86.2v-7.6h-2.5l-0.1,3.4c-0.1,2-0.2,4.5-3.1,4.5c-0.4,0-1.2-0.1-1.4-0.2v-2.1c0.2,0,0.5,0.1,0.7,0.1
			c0.8,0,1.2-0.6,1.2-2l0.1-5.7h7.7v9.6H132.3z"/>
		<path class="st0" d="M141.5,86.5c-3,0-4.9-2-4.9-5c0-3,2-5.1,4.8-5.1c2.9,0,4.7,2.1,4.7,5.5v0.3h-6.9c0,1.7,0.8,2.5,2.2,2.5
			c1,0,1.6-0.4,1.9-1.4h2.5C145.4,85.3,143.7,86.5,141.5,86.5z M141.4,78.3c-1.2,0-2,0.8-2.1,2.2h4.2
			C143.4,79.3,142.8,78.3,141.4,78.3z"/>
		<path class="st0" d="M153.2,76.7c1.7,0,3.1,0.7,3.1,2.4c0,0.9-0.5,1.6-1.3,2c1,0.3,1.7,1,1.7,2.3c0,1.9-1.4,2.9-3.2,2.9h-5.8v-9.6
			H153.2z M152,80.5c0.8,0,1.6-0.1,1.6-1.1c0-0.9-0.7-1.1-1.6-1.1h-1.7v2.2H152z M152.2,84.5c0.9,0,1.7-0.2,1.7-1.3
			c0-1.1-0.9-1.3-1.9-1.3h-1.8v2.5H152.2z"/>
		<path class="st0" d="M164.6,86.2c-0.1-0.4-0.1-0.5-0.2-0.9c-0.8,0.8-1.9,1.2-3.1,1.2c-2.1,0-3.4-1.1-3.4-2.9c0-2.5,2.3-2.8,4.2-3
			c1.7-0.2,2.3-0.4,2.3-1.2c0-0.9-0.6-1.3-1.7-1.3c-1.2,0-1.7,0.4-1.9,1.5h-2.5c0.1-2.1,1.7-3.2,4.4-3.2c1.9,0,4.2,0.4,4.2,3.1v4.1
			c0,0.9,0,1.8,0.3,2.6H164.6z M162.5,82.1c-0.9,0.1-1.9,0.3-1.9,1.4c0,0.8,0.5,1.3,1.4,1.3c1.4,0,2.3-0.8,2.3-2.1v-1.1
			C163.8,81.9,163.2,82,162.5,82.1z"/>
	</g>
	<g>
		<linearGradient id="SVGID_1_" gradientUnits="userSpaceOnUse" x1="64.2609" y1="94.504" x2="106.6616" y2="94.504">
			<stop  offset="0" style="stop-color:#A34252"/>
			<stop  offset="1" style="stop-color:#F1F1F1"/>
		</linearGradient>
		<circle class="st1" cx="66.5" cy="94.5" r="2.6"/>
		<linearGradient id="SVGID_2_" gradientUnits="userSpaceOnUse" x1="64.2609" y1="94.504" x2="106.6616" y2="94.504">
			<stop  offset="0" style="stop-color:#A34252"/>
			<stop  offset="1" style="stop-color:#F1F1F1"/>
		</linearGradient>
		<circle class="st2" cx="75.9" cy="94.5" r="2.6"/>
		<linearGradient id="SVGID_3_" gradientUnits="userSpaceOnUse" x1="64.2609" y1="94.504" x2="106.6616" y2="94.504">
			<stop  offset="0" style="stop-color:#A34252"/>
			<stop  offset="1" style="stop-color:#F1F1F1"/>
		</linearGradient>
		<circle class="st3" cx="85.3" cy="94.5" r="2.6"/>
		<linearGradient id="SVGID_4_" gradientUnits="userSpaceOnUse" x1="64.2609" y1="94.504" x2="106.6616" y2="94.504">
			<stop  offset="0" style="stop-color:#A34252"/>
			<stop  offset="1" style="stop-color:#F1F1F1"/>
		</linearGradient>
		<circle class="st4" cx="94.7" cy="94.5" r="2.6"/>
		<linearGradient id="SVGID_5_" gradientUnits="userSpaceOnUse" x1="64.2609" y1="94.504" x2="106.6616" y2="94.504">
			<stop  offset="0" style="stop-color:#A34252"/>
			<stop  offset="1" style="stop-color:#F1F1F1"/>
		</linearGradient>
		<circle class="st5" cx="104.1" cy="94.5" r="2.6"/>
	</g>
</g>
</svg>
